<?xml version="1.0" standalone="yes"?>
<svg xmlns="http://www.w3.org/2000/svg" width="1024" height="1024">
<path style="fill:#000000; stroke:none;" d="M0 0L0 1024L1024 1024L1024 0L0 0z"/>
<path style="fill:#ffffff; stroke:none;" d="M301 254L233 254L191 254C143.878 254 88.7079 250.311 54.1736 289C48.9047 294.903 44.3459 301.926 40.8086 309C35.2115 320.194 31.9526 332.704 29.9198 345C27.1522 361.741 27 379.06 27 396C27 400.651 25.1511 410.416 28.0278 414.301C29.5278 416.327 32.7823 417.202 35 418.15C40.6361 420.558 46.3118 422.918 52 425.2C73.9409 434.002 96.3067 442.779 119 449.424C183.372 468.274 247.349 484.517 314 493.282C339.662 496.656 366.099 501 392 501C386.079 518.503 383 534.487 383 553C356.976 551.882 330.821 547.677 305 544.282C247.559 536.729 190.787 524.086 135 508.576C111.476 502.035 88.0658 494.664 65 486.656C52.9796 482.483 39.7044 475.116 27 474L27 752C27 795.403 23.053 847.135 54.1736 882C84.8272 916.341 131.519 917 174 917L251 917L766 917L851 917C893.15 917 939.448 916.033 969.826 882C1001.22 846.831 996 796.549 996 753L996 474C983.865 475.818 971.556 482.195 960 486.308C938.942 493.803 917.449 500.309 896 506.576C838.407 523.404 779.415 535.852 720 544.13C693.702 547.795 666.554 552.452 640 553C640 534.562 636.69 518.486 631 501C657.253 501 683.99 496.702 710 493.282C776.651 484.517 840.629 468.274 905 449.424C927.599 442.807 950.33 434.378 972 425.15C977.307 422.89 982.687 420.818 988 418.576C990.297 417.606 993.492 416.661 994.972 414.502C997.695 410.531 996 401.638 996 397C996 382.022 996.722 366.884 995.05 352C993.584 338.947 990.364 326.157 985.397 314C982.483 306.87 978.413 300.192 973.844 294C940.101 248.268 876.098 254 826 254L786 254L723 254C723 209.578 727.756 161.226 692 128.09C669.412 107.159 637.237 104 608 104L432 104C396.943 104 359.593 103.52 332 129.09C296.414 162.068 301 209.791 301 254z"/>
<path style="fill:#000000; stroke:none;" d="M358 254L666 254L666 220C666 202.018 665.502 183.089 650.996 170.184C633.064 154.233 607.12 158 585 158L437 158C415.663 158 390.082 154.332 373.001 170.093C358.498 183.476 358 200.618 358 219L358 254M509 442.439C489.537 444.518 468.797 447.4 452.424 459.383C432.35 474.076 415.516 493.022 407.745 517C392.417 564.3 411.217 618.446 454.17 644.688C475.022 657.427 499.849 662.167 524 659.83C583.174 654.104 625.362 597.895 619.83 540C615.777 497.587 585.222 460.909 545 447.671C534.107 444.085 520.5 441.211 509 442.439z"/>
<path style="fill:#ffffff; stroke:none;" d="M569 484.558C558.449 486.277 549.192 493.903 539.985 498.741C527.611 505.243 514.519 510.494 502 516.753C496.627 519.44 489.536 521.731 485.39 526.213C477.869 534.346 473.908 548.073 469.219 558C462.075 573.124 452.688 587.531 446.453 603C444.017 609.043 443.151 617.794 452.004 617.916C463.259 618.071 475.253 608.056 485 603.244C496.635 597.499 508.391 592.052 520 586.247C525.485 583.504 532.394 581.181 536.787 576.787C540.243 573.331 542.094 568.307 544.247 564C547.746 557.002 551.334 550.042 554.742 543C558.553 535.122 561.733 526.837 565.969 519.17C569.776 512.281 574.377 505.537 576.895 498C579.072 491.484 577.648 483.149 569 484.558z"/>
<path style="fill:#000000; stroke:none;" d="M510 537.559C491.812 539.743 495.098 567.807 513 565.431C530.545 563.102 527.583 535.447 510 537.559z"/>
</svg>
